<svg width="27" height="26" viewBox="0 0 27 26" fill="none" xmlns="http://www.w3.org/2000/svg">
<g filter="url(#filter0_ii_92_5)">
<path d="M12.3785 1.12574C12.8543 0.223948 14.1459 0.223947 14.6217 1.12574L17.7633 7.08026C17.9468 7.42803 18.2812 7.67101 18.6687 7.73804L25.3026 8.88587C26.3072 9.05971 26.7063 10.288 25.9957 11.0192L21.3035 15.8471C21.0294 16.1291 20.9017 16.5222 20.9576 16.9114L21.916 23.5754C22.0611 24.5846 21.0162 25.3437 20.1013 24.8938L14.0596 21.9231C13.7068 21.7496 13.2934 21.7496 12.9406 21.9231L6.89893 24.8938C5.98395 25.3437 4.93908 24.5846 5.08422 23.5754L6.04256 16.9114C6.09853 16.5222 5.97079 16.1291 5.69674 15.8471L1.00448 11.0192C0.293847 10.288 0.692949 9.05971 1.69763 8.88587L8.33154 7.73804C8.71899 7.67101 9.05342 7.42803 9.2369 7.08026L12.3785 1.12574Z" fill="#FFC700"/>
</g>
<defs>
<filter id="filter0_ii_92_5" x="-1.35549" y="-1.55054" width="30.7112" height="28.5769" filterUnits="userSpaceOnUse" color-interpolation-filters="sRGB">
<feFlood flood-opacity="0" result="BackgroundImageFix"/>
<feBlend mode="normal" in="SourceGraphic" in2="BackgroundImageFix" result="shape"/>
<feColorMatrix in="SourceAlpha" type="matrix" values="0 0 0 0 0 0 0 0 0 0 0 0 0 0 0 0 0 0 127 0" result="hardAlpha"/>
<feOffset dx="-2" dy="-2"/>
<feGaussianBlur stdDeviation="2"/>
<feComposite in2="hardAlpha" operator="arithmetic" k2="-1" k3="1"/>
<feColorMatrix type="matrix" values="0 0 0 0 0.470833 0 0 0 0 0.367413 0 0 0 0 0 0 0 0 1 0"/>
<feBlend mode="normal" in2="shape" result="effect1_innerShadow_92_5"/>
<feColorMatrix in="SourceAlpha" type="matrix" values="0 0 0 0 0 0 0 0 0 0 0 0 0 0 0 0 0 0 127 0" result="hardAlpha"/>
<feOffset dx="3" dy="2"/>
<feGaussianBlur stdDeviation="1.5"/>
<feComposite in2="hardAlpha" operator="arithmetic" k2="-1" k3="1"/>
<feColorMatrix type="matrix" values="0 0 0 0 1 0 0 0 0 0.924037 0 0 0 0 0.654167 0 0 0 1 0"/>
<feBlend mode="normal" in2="effect1_innerShadow_92_5" result="effect2_innerShadow_92_5"/>
</filter>
</defs>
</svg>
